<mxfile host="app.diagrams.net" modified="2024-06-11T17:21:15.435Z" agent="Mozilla/5.0 (Windows NT 10.0; Win64; x64) AppleWebKit/537.36 (KHTML, like Gecko) Chrome/125.0.0.0 Safari/537.36 Edg/125.0.0.0" etag="PWzzMlBHJ5R25vDJqKMc" version="24.5.3" type="device">
  <diagram name="Page-1" id="cMO8Y3awTJQPdKlFBJFw">
    <mxGraphModel dx="291" dy="628" grid="1" gridSize="10" guides="1" tooltips="1" connect="1" arrows="1" fold="1" page="1" pageScale="1" pageWidth="850" pageHeight="1100" math="0" shadow="0">
      <root>
        <mxCell id="0" />
        <mxCell id="1" parent="0" />
        <mxCell id="g1wZf87YSQsPDpNj-RlM-1" value="Sender" style="rounded=1;whiteSpace=wrap;html=1;fillColor=#dae8fc;strokeColor=#6c8ebf;shadow=1;" vertex="1" parent="1">
          <mxGeometry x="880" y="930" width="80" height="30" as="geometry" />
        </mxCell>
        <mxCell id="g1wZf87YSQsPDpNj-RlM-2" value="" style="endArrow=none;html=1;rounded=0;dashed=1;fillColor=#dae8fc;strokeColor=#6c8ebf;shadow=1;" edge="1" parent="1">
          <mxGeometry width="50" height="50" relative="1" as="geometry">
            <mxPoint x="915.37" y="1281" as="sourcePoint" />
            <mxPoint x="915" y="961" as="targetPoint" />
          </mxGeometry>
        </mxCell>
        <mxCell id="g1wZf87YSQsPDpNj-RlM-3" value="WebApp" style="rounded=1;whiteSpace=wrap;html=1;fillColor=#f8cecc;strokeColor=#b85450;shadow=1;" vertex="1" parent="1">
          <mxGeometry x="1000" y="930" width="80" height="30" as="geometry" />
        </mxCell>
        <mxCell id="g1wZf87YSQsPDpNj-RlM-4" value="Receiver" style="rounded=1;whiteSpace=wrap;html=1;fillColor=#d5e8d4;strokeColor=#82b366;shadow=1;" vertex="1" parent="1">
          <mxGeometry x="1110" y="930" width="80" height="30" as="geometry" />
        </mxCell>
        <mxCell id="g1wZf87YSQsPDpNj-RlM-5" value="QRScanner" style="rounded=1;whiteSpace=wrap;html=1;fillColor=#ffe6cc;strokeColor=#d79b00;shadow=1;" vertex="1" parent="1">
          <mxGeometry x="1200" y="930" width="80" height="30" as="geometry" />
        </mxCell>
        <mxCell id="g1wZf87YSQsPDpNj-RlM-6" value="Browser" style="rounded=1;whiteSpace=wrap;html=1;fillColor=#e1d5e7;strokeColor=#9673a6;shadow=1;" vertex="1" parent="1">
          <mxGeometry x="1290" y="930" width="80" height="30" as="geometry" />
        </mxCell>
        <mxCell id="g1wZf87YSQsPDpNj-RlM-7" value="" style="endArrow=none;html=1;rounded=0;dashed=1;fillColor=#f8cecc;strokeColor=#b85450;shadow=1;" edge="1" parent="1">
          <mxGeometry width="50" height="50" relative="1" as="geometry">
            <mxPoint x="1040" y="1280" as="sourcePoint" />
            <mxPoint x="1039.52" y="960" as="targetPoint" />
          </mxGeometry>
        </mxCell>
        <mxCell id="g1wZf87YSQsPDpNj-RlM-8" value="" style="endArrow=none;html=1;rounded=0;dashed=1;fillColor=#d5e8d4;strokeColor=#82b366;shadow=1;" edge="1" parent="1">
          <mxGeometry width="50" height="50" relative="1" as="geometry">
            <mxPoint x="1150" y="1280" as="sourcePoint" />
            <mxPoint x="1149.52" y="960" as="targetPoint" />
          </mxGeometry>
        </mxCell>
        <mxCell id="g1wZf87YSQsPDpNj-RlM-9" value="" style="endArrow=none;html=1;rounded=0;dashed=1;fillColor=#ffe6cc;strokeColor=#d79b00;shadow=1;" edge="1" parent="1">
          <mxGeometry width="50" height="50" relative="1" as="geometry">
            <mxPoint x="1240" y="1280" as="sourcePoint" />
            <mxPoint x="1239.52" y="960" as="targetPoint" />
          </mxGeometry>
        </mxCell>
        <mxCell id="g1wZf87YSQsPDpNj-RlM-10" value="" style="endArrow=none;html=1;rounded=0;dashed=1;fillColor=#e1d5e7;strokeColor=#9673a6;shadow=1;" edge="1" parent="1">
          <mxGeometry width="50" height="50" relative="1" as="geometry">
            <mxPoint x="1330" y="1280" as="sourcePoint" />
            <mxPoint x="1329.52" y="960" as="targetPoint" />
          </mxGeometry>
        </mxCell>
        <mxCell id="g1wZf87YSQsPDpNj-RlM-11" value="" style="endArrow=classic;html=1;rounded=0;shadow=1;" edge="1" parent="1">
          <mxGeometry width="50" height="50" relative="1" as="geometry">
            <mxPoint x="920" y="990" as="sourcePoint" />
            <mxPoint x="1040" y="990" as="targetPoint" />
          </mxGeometry>
        </mxCell>
        <mxCell id="g1wZf87YSQsPDpNj-RlM-12" value="&lt;font style=&quot;font-size: 9px;&quot;&gt;Upload file&lt;/font&gt;" style="edgeLabel;html=1;align=center;verticalAlign=middle;resizable=0;points=[];" vertex="1" connectable="0" parent="g1wZf87YSQsPDpNj-RlM-11">
          <mxGeometry x="-0.0242" relative="1" as="geometry">
            <mxPoint y="-10" as="offset" />
          </mxGeometry>
        </mxCell>
        <mxCell id="g1wZf87YSQsPDpNj-RlM-13" value="" style="endArrow=classic;html=1;rounded=1;curved=0;shadow=1;arcSize=10;" edge="1" parent="1">
          <mxGeometry width="50" height="50" relative="1" as="geometry">
            <mxPoint x="1040" y="1000" as="sourcePoint" />
            <mxPoint x="1040" y="1030" as="targetPoint" />
            <Array as="points">
              <mxPoint x="1080" y="1000" />
              <mxPoint x="1080" y="1030" />
            </Array>
          </mxGeometry>
        </mxCell>
        <mxCell id="g1wZf87YSQsPDpNj-RlM-14" value="&lt;font style=&quot;font-size: 9px;&quot;&gt;Generate link,&amp;nbsp;&lt;/font&gt;&lt;span style=&quot;font-size: 9px;&quot;&gt;QR code&lt;/span&gt;" style="edgeLabel;html=1;align=center;verticalAlign=middle;resizable=0;points=[];" vertex="1" connectable="0" parent="g1wZf87YSQsPDpNj-RlM-13">
          <mxGeometry x="0.0182" y="-1" relative="1" as="geometry">
            <mxPoint x="11" as="offset" />
          </mxGeometry>
        </mxCell>
        <mxCell id="g1wZf87YSQsPDpNj-RlM-15" value="" style="endArrow=classic;html=1;rounded=0;dashed=1;dashPattern=8 8;shadow=1;" edge="1" parent="1">
          <mxGeometry width="50" height="50" relative="1" as="geometry">
            <mxPoint x="1040" y="1040" as="sourcePoint" />
            <mxPoint x="920" y="1040" as="targetPoint" />
          </mxGeometry>
        </mxCell>
        <mxCell id="g1wZf87YSQsPDpNj-RlM-16" value="&lt;font style=&quot;font-size: 9px;&quot;&gt;Return link,&amp;nbsp;&lt;/font&gt;&lt;span style=&quot;font-size: 9px;&quot;&gt;QR code&lt;/span&gt;" style="edgeLabel;html=1;align=center;verticalAlign=middle;resizable=0;points=[];" vertex="1" connectable="0" parent="g1wZf87YSQsPDpNj-RlM-15">
          <mxGeometry x="0.0242" y="1" relative="1" as="geometry">
            <mxPoint y="-11" as="offset" />
          </mxGeometry>
        </mxCell>
        <mxCell id="g1wZf87YSQsPDpNj-RlM-19" value="" style="endArrow=classic;html=1;rounded=0;shadow=1;" edge="1" parent="1">
          <mxGeometry width="50" height="50" relative="1" as="geometry">
            <mxPoint x="1150" y="1060" as="sourcePoint" />
            <mxPoint x="1040" y="1060" as="targetPoint" />
          </mxGeometry>
        </mxCell>
        <mxCell id="g1wZf87YSQsPDpNj-RlM-20" value="&lt;font style=&quot;font-size: 9px;&quot;&gt;Paste link &amp;amp; connect&lt;/font&gt;" style="edgeLabel;html=1;align=center;verticalAlign=middle;resizable=0;points=[];" vertex="1" connectable="0" parent="g1wZf87YSQsPDpNj-RlM-19">
          <mxGeometry x="0.0182" y="-1" relative="1" as="geometry">
            <mxPoint x="7" y="-8" as="offset" />
          </mxGeometry>
        </mxCell>
        <mxCell id="g1wZf87YSQsPDpNj-RlM-21" value="" style="rounded=1;whiteSpace=wrap;html=1;fillColor=none;strokeColor=#9673a6;dashed=1;" vertex="1" parent="1">
          <mxGeometry x="1030" y="1070" width="310" height="70" as="geometry" />
        </mxCell>
        <mxCell id="g1wZf87YSQsPDpNj-RlM-22" value="" style="endArrow=classic;html=1;rounded=0;shadow=1;" edge="1" parent="1">
          <mxGeometry width="50" height="50" relative="1" as="geometry">
            <mxPoint x="1150" y="1090" as="sourcePoint" />
            <mxPoint x="1240" y="1090" as="targetPoint" />
          </mxGeometry>
        </mxCell>
        <mxCell id="g1wZf87YSQsPDpNj-RlM-23" value="&lt;font style=&quot;font-size: 9px;&quot;&gt;Scan QR code&lt;/font&gt;" style="edgeLabel;html=1;align=center;verticalAlign=middle;resizable=0;points=[];" vertex="1" connectable="0" parent="g1wZf87YSQsPDpNj-RlM-22">
          <mxGeometry x="0.0344" y="-1" relative="1" as="geometry">
            <mxPoint x="-7" y="-11" as="offset" />
          </mxGeometry>
        </mxCell>
        <mxCell id="g1wZf87YSQsPDpNj-RlM-24" value="" style="endArrow=classic;html=1;rounded=0;shadow=1;" edge="1" parent="1">
          <mxGeometry width="50" height="50" relative="1" as="geometry">
            <mxPoint x="1330" y="1130" as="sourcePoint" />
            <mxPoint x="1040" y="1130" as="targetPoint" />
          </mxGeometry>
        </mxCell>
        <mxCell id="g1wZf87YSQsPDpNj-RlM-27" value="&lt;font style=&quot;font-size: 9px;&quot;&gt;Connect using link&lt;/font&gt;" style="edgeLabel;html=1;align=center;verticalAlign=middle;resizable=0;points=[];" vertex="1" connectable="0" parent="g1wZf87YSQsPDpNj-RlM-24">
          <mxGeometry x="0.3503" y="-7" relative="1" as="geometry">
            <mxPoint x="36" as="offset" />
          </mxGeometry>
        </mxCell>
        <mxCell id="g1wZf87YSQsPDpNj-RlM-25" value="" style="endArrow=classic;html=1;rounded=0;entryX=0.968;entryY=0.571;entryDx=0;entryDy=0;entryPerimeter=0;shadow=1;" edge="1" parent="1" target="g1wZf87YSQsPDpNj-RlM-21">
          <mxGeometry width="50" height="50" relative="1" as="geometry">
            <mxPoint x="1240" y="1110" as="sourcePoint" />
            <mxPoint x="1290" y="1060" as="targetPoint" />
          </mxGeometry>
        </mxCell>
        <mxCell id="g1wZf87YSQsPDpNj-RlM-26" value="&lt;font style=&quot;font-size: 9px;&quot;&gt;Open with link&lt;/font&gt;" style="edgeLabel;html=1;align=center;verticalAlign=middle;resizable=0;points=[];" vertex="1" connectable="0" parent="g1wZf87YSQsPDpNj-RlM-25">
          <mxGeometry x="0.0435" y="3" relative="1" as="geometry">
            <mxPoint x="-7" y="-7" as="offset" />
          </mxGeometry>
        </mxCell>
        <mxCell id="g1wZf87YSQsPDpNj-RlM-28" value="&lt;font style=&quot;font-size: 9px;&quot;&gt;Using QR code&lt;/font&gt;" style="text;html=1;align=center;verticalAlign=middle;whiteSpace=wrap;rounded=0;" vertex="1" parent="1">
          <mxGeometry x="1040" y="1070" width="70" height="20" as="geometry" />
        </mxCell>
        <mxCell id="g1wZf87YSQsPDpNj-RlM-29" value="" style="endArrow=classic;html=1;rounded=0;dashed=1;dashPattern=8 8;shadow=1;" edge="1" parent="1">
          <mxGeometry width="50" height="50" relative="1" as="geometry">
            <mxPoint x="1040" y="1160" as="sourcePoint" />
            <mxPoint x="920" y="1160" as="targetPoint" />
          </mxGeometry>
        </mxCell>
        <mxCell id="g1wZf87YSQsPDpNj-RlM-31" value="&lt;font style=&quot;font-size: 9px;&quot;&gt;Connected list&lt;/font&gt;" style="edgeLabel;html=1;align=center;verticalAlign=middle;resizable=0;points=[];" vertex="1" connectable="0" parent="g1wZf87YSQsPDpNj-RlM-29">
          <mxGeometry x="0.0167" y="-2" relative="1" as="geometry">
            <mxPoint y="-8" as="offset" />
          </mxGeometry>
        </mxCell>
        <mxCell id="g1wZf87YSQsPDpNj-RlM-32" value="" style="endArrow=classic;html=1;rounded=0;shadow=1;" edge="1" parent="1">
          <mxGeometry width="50" height="50" relative="1" as="geometry">
            <mxPoint x="1150" y="1170" as="sourcePoint" />
            <mxPoint x="1040" y="1170" as="targetPoint" />
          </mxGeometry>
        </mxCell>
        <mxCell id="g1wZf87YSQsPDpNj-RlM-33" value="&lt;font style=&quot;font-size: 9px;&quot;&gt;Accept file&lt;/font&gt;" style="edgeLabel;html=1;align=center;verticalAlign=middle;resizable=0;points=[];" vertex="1" connectable="0" parent="g1wZf87YSQsPDpNj-RlM-32">
          <mxGeometry y="-1" relative="1" as="geometry">
            <mxPoint y="-9" as="offset" />
          </mxGeometry>
        </mxCell>
        <mxCell id="g1wZf87YSQsPDpNj-RlM-34" value="" style="endArrow=classic;html=1;rounded=0;shadow=1;dashed=1;dashPattern=8 8;" edge="1" parent="1">
          <mxGeometry width="50" height="50" relative="1" as="geometry">
            <mxPoint x="1040" y="1190" as="sourcePoint" />
            <mxPoint x="920" y="1190" as="targetPoint" />
          </mxGeometry>
        </mxCell>
        <mxCell id="g1wZf87YSQsPDpNj-RlM-35" value="&lt;font style=&quot;font-size: 9px;&quot;&gt;Notify aceptance&lt;/font&gt;" style="edgeLabel;html=1;align=center;verticalAlign=middle;resizable=0;points=[];" vertex="1" connectable="0" parent="g1wZf87YSQsPDpNj-RlM-34">
          <mxGeometry x="-0.0233" y="-2" relative="1" as="geometry">
            <mxPoint y="-8" as="offset" />
          </mxGeometry>
        </mxCell>
        <mxCell id="g1wZf87YSQsPDpNj-RlM-36" value="" style="endArrow=classic;html=1;rounded=0;shadow=1;dashed=1;dashPattern=8 8;" edge="1" parent="1">
          <mxGeometry width="50" height="50" relative="1" as="geometry">
            <mxPoint x="1040" y="1230" as="sourcePoint" />
            <mxPoint x="1150" y="1230" as="targetPoint" />
          </mxGeometry>
        </mxCell>
        <mxCell id="g1wZf87YSQsPDpNj-RlM-37" value="&lt;font style=&quot;font-size: 9px;&quot;&gt;Sent success&lt;/font&gt;" style="edgeLabel;html=1;align=center;verticalAlign=middle;resizable=0;points=[];" vertex="1" connectable="0" parent="g1wZf87YSQsPDpNj-RlM-36">
          <mxGeometry x="-0.03" relative="1" as="geometry">
            <mxPoint y="-10" as="offset" />
          </mxGeometry>
        </mxCell>
        <mxCell id="g1wZf87YSQsPDpNj-RlM-39" value="" style="endArrow=classic;html=1;rounded=0;shadow=1;" edge="1" parent="1">
          <mxGeometry width="50" height="50" relative="1" as="geometry">
            <mxPoint x="1150" y="1200" as="sourcePoint" />
            <mxPoint x="1040" y="1200" as="targetPoint" />
          </mxGeometry>
        </mxCell>
        <mxCell id="g1wZf87YSQsPDpNj-RlM-40" value="&lt;font style=&quot;font-size: 9px;&quot;&gt;Download file&lt;/font&gt;" style="edgeLabel;html=1;align=center;verticalAlign=middle;resizable=0;points=[];" vertex="1" connectable="0" parent="g1wZf87YSQsPDpNj-RlM-39">
          <mxGeometry x="-0.0291" y="-2" relative="1" as="geometry">
            <mxPoint x="4" y="-8" as="offset" />
          </mxGeometry>
        </mxCell>
        <mxCell id="g1wZf87YSQsPDpNj-RlM-41" value="" style="endArrow=classic;html=1;rounded=0;shadow=1;" edge="1" parent="1">
          <mxGeometry width="50" height="50" relative="1" as="geometry">
            <mxPoint x="920" y="1250" as="sourcePoint" />
            <mxPoint x="1040" y="1250" as="targetPoint" />
          </mxGeometry>
        </mxCell>
        <mxCell id="g1wZf87YSQsPDpNj-RlM-43" value="&lt;font style=&quot;font-size: 9px;&quot;&gt;Close connection&lt;/font&gt;" style="edgeLabel;html=1;align=center;verticalAlign=middle;resizable=0;points=[];" vertex="1" connectable="0" parent="g1wZf87YSQsPDpNj-RlM-41">
          <mxGeometry x="-0.0033" relative="1" as="geometry">
            <mxPoint y="-10" as="offset" />
          </mxGeometry>
        </mxCell>
        <mxCell id="g1wZf87YSQsPDpNj-RlM-44" value="" style="endArrow=classic;html=1;rounded=0;shadow=1;" edge="1" parent="1">
          <mxGeometry width="50" height="50" relative="1" as="geometry">
            <mxPoint x="1040" y="1260" as="sourcePoint" />
            <mxPoint x="1150" y="1260" as="targetPoint" />
          </mxGeometry>
        </mxCell>
        <mxCell id="g1wZf87YSQsPDpNj-RlM-45" value="&lt;font style=&quot;font-size: 9px;&quot;&gt;Connection lost&lt;/font&gt;" style="edgeLabel;html=1;align=center;verticalAlign=middle;resizable=0;points=[];" vertex="1" connectable="0" parent="g1wZf87YSQsPDpNj-RlM-44">
          <mxGeometry relative="1" as="geometry">
            <mxPoint y="-10" as="offset" />
          </mxGeometry>
        </mxCell>
        <mxCell id="g1wZf87YSQsPDpNj-RlM-46" value="" style="rounded=1;whiteSpace=wrap;html=1;fillColor=#dae8fc;strokeColor=#6c8ebf;shadow=1;" vertex="1" parent="1">
          <mxGeometry x="910" y="980" width="10" height="270" as="geometry" />
        </mxCell>
        <mxCell id="g1wZf87YSQsPDpNj-RlM-47" value="&lt;font style=&quot;font-size: 9px;&quot;&gt;Multi sharing service sequence diagram&lt;/font&gt;" style="text;html=1;align=center;verticalAlign=middle;whiteSpace=wrap;rounded=0;" vertex="1" parent="1">
          <mxGeometry x="1030" y="1280" width="210" height="20" as="geometry" />
        </mxCell>
      </root>
    </mxGraphModel>
  </diagram>
</mxfile>
